<svg width="250" height="250" viewBox="0 0 250 250" fill="none" xmlns="http://www.w3.org/2000/svg">
<rect width="250" height="250" rx="125" fill="#E3E3E3"/>
<path d="M61.0114 205C58.5823 204.989 56.2569 204.015 54.545 202.291C52.833 200.568 51.8743 198.236 51.8791 195.807C51.9004 194.884 52.0445 193.967 52.3077 193.082L58.8864 169.286C59.1614 168.407 58.8507 167.521 58.4471 166.821L58.3685 166.679C58.3399 166.632 58.2042 166.443 58.1078 166.304C58.0114 166.164 57.9006 166.014 57.8006 165.868L57.7328 165.771C49.426 153.182 44.9988 138.43 45.0004 123.346C44.9361 102.779 52.9827 83.3464 67.6651 68.6036C82.8583 53.3822 103.18 45 124.938 45C143.395 44.9909 161.305 51.269 175.717 62.8C189.807 74.1393 199.6 89.9429 203.293 107.329C204.43 112.61 205.002 117.998 205 123.4C205 144.446 196.914 164.214 182.228 179.068C167.414 194.068 147.52 202.304 126.216 202.304C118.716 202.304 109.12 200.389 104.512 199.089C98.9693 197.539 93.7156 195.518 93.1371 195.304C92.5247 195.069 91.8748 194.948 91.2192 194.946C90.508 194.942 89.8034 195.082 89.1477 195.357L88.8441 195.475L64.7436 204.182C63.5599 204.68 62.295 204.958 61.0114 205Z" fill="white"/>
</svg>