<svg width="250" height="250" viewBox="0 0 250 250" fill="none" xmlns="http://www.w3.org/2000/svg">
<rect width="250" height="250" rx="125" fill="#E3E3E3"/>
<path d="M80.8623 88.7868C80.8623 88.7868 81.5244 73.6145 96.2829 61.449C105.046 54.2261 115.57 52.1341 125 52.0054C133.611 51.8996 141.308 53.3571 145.91 55.6008C153.777 59.4536 169.138 68.8329 169.138 88.7868C169.138 109.784 155.722 119.302 140.471 129.789C125.221 140.276 121.322 150.561 121.322 162.35" stroke="white" stroke-width="28" stroke-miterlimit="10" stroke-linecap="round"/>
<path d="M121.322 212C129.447 212 136.034 205.413 136.034 197.287C136.034 189.162 129.447 182.575 121.322 182.575C113.196 182.575 106.609 189.162 106.609 197.287C106.609 205.413 113.196 212 121.322 212Z" fill="white"/>
</svg>